<svg width="387" height="95" viewBox="0 0 387 95" fill="none" xmlns="http://www.w3.org/2000/svg">
<path d="M66.8281 17.9688H39.9688V73H27.7812V17.9688H0.875V5.78125H66.8281V17.9688ZM118.906 56.2188C118.906 57.9062 118.609 59.7344 118.016 61.7031C117.422 63.6406 116.453 65.4531 115.109 67.1406C113.797 68.7969 112.062 70.1875 109.906 71.3125C107.781 72.4375 105.188 73 102.125 73H80.1406C78.4531 73 76.625 72.7031 74.6562 72.1094C72.7188 71.5156 70.9062 70.5625 69.2188 69.25C67.5625 67.9062 66.1719 66.1719 65.0469 64.0469C63.9219 61.8906 63.3594 59.2812 63.3594 56.2188C63.3594 54.5312 63.6562 52.7031 64.25 50.7344C64.8438 48.7656 65.7969 46.9531 67.1094 45.2969C68.4531 43.6094 70.1875 42.2031 72.3125 41.0781C74.4688 39.9531 77.0781 39.3906 80.1406 39.3906H102.125V51.0156H80.1406C78.4844 51.0156 77.2031 51.5312 76.2969 52.5625C75.3906 53.5625 74.9375 54.8125 74.9375 56.3125C74.9375 57.9062 75.4531 59.1562 76.4844 60.0625C77.5469 60.9375 78.7969 61.375 80.2344 61.375H102.125C103.781 61.375 105.062 60.875 105.969 59.875C106.875 58.875 107.328 57.625 107.328 56.125V39.1094C107.328 37.5156 106.828 36.25 105.828 35.3125C104.859 34.375 103.625 33.9062 102.125 33.9062H75.3594V22.3281H102.125C103.812 22.3281 105.625 22.625 107.562 23.2188C109.531 23.8125 111.344 24.7812 113 26.125C114.688 27.4375 116.094 29.1719 117.219 31.3281C118.344 33.4531 118.906 36.0469 118.906 39.1094V56.2188ZM178.297 55.8906C178.297 57.9844 178.031 59.875 177.5 61.5625C176.969 63.2188 176.266 64.6875 175.391 65.9688C174.516 67.2188 173.5 68.2969 172.344 69.2031C171.188 70.0781 169.969 70.7969 168.688 71.3594C167.438 71.9219 166.156 72.3438 164.844 72.625C163.562 72.875 162.344 73 161.188 73H128.188V60.8125H161.094C162.75 60.8125 164 60.3906 164.844 59.5469C165.688 58.7031 166.109 57.4844 166.109 55.8906C165.953 52.6406 164.312 51.0156 161.188 51.0156H142.297C139.609 51.0156 137.328 50.5469 135.453 49.6094C133.578 48.6719 132.047 47.5 130.859 46.0938C129.703 44.6875 128.859 43.1719 128.328 41.5469C127.828 39.9219 127.578 38.4062 127.578 37C127.578 34.2812 128.062 32 129.031 30.1562C130 28.2812 131.219 26.7656 132.688 25.6094C134.156 24.4531 135.75 23.625 137.469 23.125C139.188 22.5938 140.797 22.3281 142.297 22.3281H172.25V34.5156H142.391C141.766 34.5156 141.266 34.5938 140.891 34.75C140.547 34.875 140.281 35.0625 140.094 35.3125C139.938 35.5312 139.844 35.7812 139.812 36.0625C139.781 36.3125 139.766 36.5625 139.766 36.8125C139.797 37.3125 139.891 37.7031 140.047 37.9844C140.203 38.2656 140.391 38.4688 140.609 38.5938C140.859 38.7188 141.125 38.7969 141.406 38.8281C141.719 38.8281 142.016 38.8281 142.297 38.8281H161.188C164.312 38.8281 166.969 39.3906 169.156 40.5156C171.344 41.6406 173.109 43.0625 174.453 44.7812C175.797 46.4688 176.766 48.3125 177.359 50.3125C177.984 52.3125 178.297 54.1719 178.297 55.8906ZM246.406 73H228.828L204.266 49.2812C202.891 48.0312 202.25 46.4688 202.344 44.5938C202.406 43.7188 202.625 42.9062 203 42.1562C203.406 41.375 203.953 40.7188 204.641 40.1875L226.906 22.2344H246.406L217.719 45.3438L246.406 73ZM199.25 73H187.062V0.90625H199.25V73ZM265.625 11.9219H253.438V0.90625H265.625V11.9219ZM265.625 73H253.438V22.3281H265.625V73ZM322.203 34.5156H294.641V22.3281H322.203V34.5156ZM322.203 12.5312H294.734C293.078 12.5312 291.828 12.9531 290.984 13.7969C290.141 14.6094 289.719 15.8125 289.719 17.4062V73H277.531V17.4062C277.531 15.3125 277.797 13.4375 278.328 11.7812C278.859 10.125 279.562 8.67188 280.438 7.42188C281.344 6.14063 282.375 5.0625 283.531 4.1875C284.688 3.28125 285.891 2.54688 287.141 1.98438C288.422 1.42188 289.703 1.01562 290.984 0.765625C292.266 0.484375 293.484 0.34375 294.641 0.34375H322.203V12.5312ZM386.094 77.875C386.094 79.9688 385.828 81.8438 385.297 83.5C384.766 85.1875 384.062 86.6562 383.188 87.9062C382.312 89.1875 381.297 90.2656 380.141 91.1406C378.984 92.0469 377.766 92.7812 376.484 93.3438C375.234 93.9062 373.969 94.3125 372.688 94.5625C371.406 94.8438 370.188 94.9844 369.031 94.9844H347.047V82.7969H369.031C370.656 82.7969 371.875 82.375 372.688 81.5312C373.5 80.6875 373.906 79.4688 373.906 77.875V22.3281H386.094V77.875ZM369.031 73H347.047C345.297 73 343.422 72.7031 341.422 72.1094C339.453 71.5156 337.609 70.5469 335.891 69.2031C334.172 67.8281 332.75 66.0625 331.625 63.9062C330.5 61.7188 329.938 59.0469 329.938 55.8906V22.3281H342.125V55.8906C342.125 57.4844 342.547 58.7031 343.391 59.5469C344.234 60.3906 345.484 60.8125 347.141 60.8125H369.031V73Z" fill="#4B0082"/>
</svg>
